<?xml version="1.0" encoding="UTF-8"?>
<svg id="Layer_2" data-name="Layer 2" xmlns="http://www.w3.org/2000/svg" viewBox="0 0 95.8 95.01">
  <defs>
    <style>
      .cls-1 {
        fill: none;
        stroke: #003057;
        stroke-miterlimit: 10;
        stroke-width: 3px;
      }

      .cls-2 {
        fill: #003057;
      }
    </style>
  </defs>
  <g id="Layer_1-2" data-name="Layer 1">
    <polygon class="cls-1" points="71.1 93.51 1.5 93.51 1.5 1.5 94.3 1.5 94.3 74.01 71.1 93.51"/>
    <rect class="cls-1" x="31.29" y="23.22" width="33.22" height="10.49"/>
    <polyline class="cls-1" points="31.29 28.81 22.61 28.81 17.96 28.81 17.96 12.55"/>
    <line class="cls-1" x1="7.43" y1="12.55" x2="28.48" y2="12.55"/>
    <polyline class="cls-1" points="77.85 12.55 77.85 28.81 73.19 28.81 64.51 28.81"/>
    <line class="cls-1" x1="88.37" y1="12.55" x2="67.33" y2="12.55"/>
    <line class="cls-1" x1="57.53" y1="40.84" x2="64.15" y2="40.84"/>
    <line class="cls-1" x1="31.65" y1="40.84" x2="38.27" y2="40.84"/>
    <rect class="cls-1" x="38.27" y="33.71" width="19.26" height="14.26"/>
    <line class="cls-1" x1="43.42" y1="40.84" x2="52.67" y2="40.84"/>
    <path class="cls-2" d="m22.51,79.23v-4.36c-.95-.13-1.88-.18-2.78-.39-3.09-.74-4.95-2.78-5.42-5.93-.12-.84-.13-1.7-.18-2.54-.04-.75.33-1.12,1.07-1.07,1.41.08,2.81.19,4.28.29,0-.84-.16-1.88.03-2.85.41-2.08,1.71-3.67,3.25-5.06.55-.49,1-.21,1.41.2,2.19,2.15,3.74,4.55,3.05,7.74,1.35-.12,2.66-.28,3.99-.33,1.21-.04,1.47.18,1.35,1.39-.14,1.4-.28,2.84-.75,4.15-1,2.82-3.34,3.9-6.13,4.24-.41.05-.83.06-1.24.1-.05,0-.1.03-.21.06v4.32h22.71v-5.15c-.88-.1-1.72-.15-2.55-.31-3.39-.7-5.46-3.08-5.77-6.57-.05-.57-.11-1.13-.11-1.7,0-1.09.28-1.41,1.38-1.38,1.08.03,2.15.21,3.22.34.24.03.48.11.64.15,0-.79-.09-1.57.02-2.32.34-2.4,1.68-4.24,3.47-5.77.21-.18.83-.19,1.03-.01,2.04,1.82,3.61,3.92,3.51,6.85-.01.4-.1.81-.14,1.16,1.3-.14,2.56-.34,3.83-.39,1.34-.06,1.65.25,1.53,1.59-.11,1.27-.27,2.58-.68,3.78-.98,2.84-3.47,4.42-6.84,4.48-.73.01-.98.2-.94.95.06,1.41.02,2.83.02,4.31h22.77v-4.31c-.77-.1-1.53-.16-2.28-.3-3.37-.61-5.36-2.62-5.89-5.99-.13-.81-.15-1.64-.17-2.47-.02-.93.21-1.2,1.11-1.17,1.4.05,2.8.19,4.23.29-.68-3.13.82-5.53,2.99-7.66.72-.71,1.03-.71,1.76,0,1.64,1.6,2.97,3.39,3.12,5.79.04.66-.05,1.32-.08,1.89,1.37-.1,2.76-.26,4.16-.3.93-.03,1.21.25,1.13,1.14-.11,1.3-.18,2.64-.56,3.88-.88,2.87-3.2,4.53-6.32,4.75-.48.03-.97.07-1.48.11v4.42h1.78c1.89,0,3.77,0,5.66,0,.61,0,1.22.04,1.22.82,0,.79-.63.83-1.22.83-11.71,0-23.42,0-35.13,0-9.93,0-19.86,0-29.78,0-.31,0-.62.01-.93-.02-.49-.05-.85-.28-.84-.82.01-.57.38-.81.93-.81,2.22,0,4.45,0,6.67,0,.33,0,.67,0,1.08,0m17.7-13.47c.02,4.35,2.12,6.18,5.44,6.51,1.34.13,1.46.36,1.24-1.32-.41-3.18-2.3-5.44-6.69-5.19m-15.94,7.36c4.17.3,7.4-2.94,6.63-6.58-4.14-.18-6.85,2.04-6.63,6.58m31.09-7.39c-4.2-.17-6.3,1.89-6.67,5.32-.14,1.32-.16,1.33,1.27,1.2,3.21-.29,5.45-2.06,5.39-6.52m9.3.84c-.38,4,3.17,7.43,6.69,6.47.13-4.33-2.41-6.74-6.69-6.47m-42.17,6.53c.32-4.16-3.25-7.58-6.72-6.48.06,4.03,1.9,6.65,6.72,6.48m.89-14.08c-3.15,3.02-3.29,6.35.02,9.4,3.13-2.82,3.14-6.54-.02-9.4m48.84,0c-3.19,2.91-3.14,7.19.06,9.39,2.99-3,3.34-6.11-.06-9.39m7.59,7.56c-4.28-.41-7.12,2.46-6.61,6.54,4.52.08,6.62-2.31,6.61-6.54m-31.99-8.38c-3.23,3-3.23,6.57.05,9.37,3.1-2.86,3.09-6.53-.05-9.37"/>
  </g>
</svg>