<?xml version="1.0" encoding="UTF-8"?>
<svg id="Layer_2" data-name="Layer 2" xmlns="http://www.w3.org/2000/svg" viewBox="0 0 95.8 95.8">
  <defs>
    <style>
      .cls-1 {
        fill: none;
        stroke: #003057;
        stroke-miterlimit: 10;
        stroke-width: 3px;
      }
    </style>
  </defs>
  <g id="Layer_1-2" data-name="Layer 1">
    <g>
      <polygon class="cls-1" points="71.1 94.3 1.5 94.3 1.5 1.5 94.3 1.5 94.3 74.64 71.1 94.3"/>
      <rect class="cls-1" x="31.55" y="23.81" width="33.22" height="10.58"/>
      <rect class="cls-1" x="38.53" y="34.38" width="19.26" height="14.38"/>
      <polyline class="cls-1" points="31.55 29.45 22.87 29.45 18.21 29.45 18.21 13.51"/>
      <line class="cls-1" x1="7.69" y1="13.51" x2="28.73" y2="13.51"/>
      <polyline class="cls-1" points="78.1 13.51 78.1 29.45 73.45 29.45 64.77 29.45"/>
      <line class="cls-1" x1="88.63" y1="13.51" x2="67.58" y2="13.51"/>
      <line class="cls-1" x1="43.67" y1="41.45" x2="52.93" y2="41.45"/>
      <line class="cls-1" x1="57.79" y1="41.45" x2="64.41" y2="41.45"/>
      <line class="cls-1" x1="31.91" y1="41.45" x2="38.53" y2="41.45"/>
      <polygon class="cls-1" points="21.47 60.29 10.56 74.17 26.76 72.04 47.93 77.67 67.93 72.04 84.28 73.92 74.87 61.04 61.65 57.29 47.93 61.04 33.21 58.04 21.47 60.29"/>
      <line class="cls-1" x1="33.21" y1="58.04" x2="26.76" y2="72.04"/>
      <line class="cls-1" x1="47.93" y1="61.04" x2="47.93" y2="77.67"/>
      <line class="cls-1" x1="61.65" y1="57.29" x2="67.93" y2="72.04"/>
    </g>
  </g>
</svg>