<?xml version="1.0" encoding="UTF-8"?>
<svg id="Layer_2" data-name="Layer 2" xmlns="http://www.w3.org/2000/svg" viewBox="0 0 95.8 95.01">
  <defs>
    <style>
      .cls-1 {
        fill: none;
        stroke: #003057;
        stroke-miterlimit: 10;
        stroke-width: 3px;
      }
    </style>
  </defs>
  <g id="Layer_1-2" data-name="Layer 1">
    <polygon class="cls-1" points="71.1 93.51 1.5 93.51 1.5 1.5 94.3 1.5 94.3 74.01 71.1 93.51"/>
    <rect class="cls-1" x="13.15" y="40.36" width="69.5" height="14.28"/>
    <line class="cls-1" x1="19.75" y1="47.5" x2="41.48" y2="47.5"/>
    <polyline class="cls-1" points="58.29 40.36 58.29 23.93 66 23.93"/>
    <ellipse class="cls-1" cx="71.95" cy="23.93" rx="5.94" ry="5.89"/>
    <polyline class="cls-1" points="40.49 40.36 40.49 23.93 32.77 23.93"/>
    <ellipse class="cls-1" cx="26.83" cy="23.93" rx="5.94" ry="5.89"/>
    <polyline class="cls-1" points="58.29 54.65 58.29 71.08 66 71.08"/>
    <ellipse class="cls-1" cx="71.95" cy="71.08" rx="5.94" ry="5.89"/>
    <polyline class="cls-1" points="40.49 54.65 40.49 71.08 32.77 71.08"/>
    <ellipse class="cls-1" cx="26.83" cy="71.08" rx="5.94" ry="5.89"/>
  </g>
</svg>