<?xml version="1.0" encoding="UTF-8"?>
<svg id="Layer_2" data-name="Layer 2" xmlns="http://www.w3.org/2000/svg" viewBox="0 0 95.8 95.01">
  <defs>
    <style>
      .cls-1 {
        fill: none;
        stroke: #003057;
        stroke-miterlimit: 10;
        stroke-width: 3px;
      }

      .cls-2 {
        fill: #003057;
      }
    </style>
  </defs>
  <g id="Layer_1-2" data-name="Layer 1">
    <polygon class="cls-1" points="71.1 93.51 1.5 93.51 1.5 1.5 94.3 1.5 94.3 74.01 71.1 93.51"/>
    <path class="cls-2" d="m81.56,31.8c-2.68.13-5.38,0-8.07.04-2.85.04-4.25,1.31-4.47,4.12-.06.74-.31.96-.97,1.25-.87.38-.92-.23-1.22-.65-2.18-3.12-4.35-6.24-6.55-9.35-.53-.74-.89-1.35-.45-2.4.49-1.17.34-2.56.09-3.82-.29-1.47-1.38-2.09-2.83-2.1-3.03,0-6.06-.06-9.08.03-1.2.03-1.98-.36-2.69-1.29-1.22-1.6-2.58-3.1-3.82-4.69-.6-.77-1.43-1.2-2.18-1.77h-2.35c-2.45,1.17-2.91,3.23-2.73,5.71.14,1.84-.69,2.53-2.47,2.35-3.02-.3-5.43,1.97-5.26,4.95.08,1.42,1.01,2.38,2.45,2.46.85.05,1.72,0,2.7,0-.16.43-.19.59-.27.73-2.98,4.67-5.98,9.33-8.94,14.01-.38.61-.83.8-1.51.78-1.34-.04-2.69.02-4.03-.02-2.12-.06-3.66.75-4.54,2.76-.53,1.23-1.15,2.43-1.8,3.6-1,1.8-1.08,3.57-.25,5.47.86,2,1.66,4.03,2.38,6.08.38,1.1,1.05,1.47,2.13,1.46,16.75,0,33.51,0,50.26,0,.83,0,1.45-.24,2.05-.9,3.45-3.83,6.91-7.65,10.44-11.4,3.18-3.37,6.12-6.97,9.52-10.13v-4.71c-1.29-2.07-3.18-2.69-5.54-2.57m-8.74,2.67c1.05-.13,2.12-.07,3.18-.06,1.03.01.68.83.71,1.37.03.58.2,1.32-.82,1.27-.56-.03-1.12,0-1.68,0-.39,0-.79.06-1.17,0-.51-.09-1.32.4-1.4-.66-.07-.93.12-1.77,1.17-1.9M36.74,15.57c.02-.69.17-1.38.89-1.66.79-.3,1.38.07,1.88.7,1.08,1.34,2.18,2.67,3.49,4.26-1.98,0-3.65-.02-5.31,0-.72.02-1.01-.25-.97-.97.04-.78-.01-1.56.02-2.34m-6.15,8.46c-.45,0-1.1.29-1.31-.37-.19-.6.25-1.05.65-1.45.56-.55,1.25-.65,2.01-.65,8.05.01,16.1.02,24.16,0,.93,0,1.41.11,1.4,1.24-.01,1.11-.48,1.27-1.41,1.26-4.25-.03-8.5-.01-12.75-.01s-8.5,0-12.75-.01m3.96,3.27c.37-.58.83-.64,1.42-.64,6.61,0,13.22.01,19.83,0,.69,0,1.14.2,1.51.8.6.97,1.29,1.9,2.15,3.15h-8.87c-.5,0-1.01.02-1.51,0-.99-.05-1.94.13-1.93,1.3.01,1.07.93,1.2,1.85,1.19,3.25-.03,6.5.11,9.74-.05,1.84-.09,3.11.38,3.91,2.08.28.59.74,1.1,1.14,1.65-1.93.91-3.92.25-5.82.49-3.48.44-6.57,2.12-9.78,3.4-2.48.99-4.98,1.56-7.67,1.51-5.03-.08-10.07-.02-15.47-.02,3.31-5.16,6.42-9.99,9.5-14.84m31.22,30.87c-.4.46-.88.41-1.38.41-16.08,0-32.16,0-48.24.02-.84,0-1.33-.19-1.62-1.02-.48-1.37-1.05-2.71-1.6-4.05-.31-.75-.08-1.04.7-.97.17.01.34,0,.5,0h56.56c-1.79,2.03-3.37,3.81-4.93,5.62m9.49-10.4c-1.39,1.64-2.89,2.2-5.04,2.19-18.44-.09-36.88-.05-55.31-.05-2.07,0-1.87.06-1.23-1.8.92-2.72,2.56-3.5,5.39-3.37,5.54.26,11.1-.15,16.64.14,6.26.33,12.12-.77,17.72-3.5,2.73-1.33,5.61-1.76,8.63-1.73,6.72.06,13.44.02,20.71.02-2.74,2.95-5.23,5.44-7.49,8.11m7.39-10.75c-.26.07-.55.01-.83.01-.39,0-.78-.05-1.17,0-1.03.15-1.35-.26-1.32-1.29.03-.91.11-1.52,1.24-1.38.66.08,1.33.03,2,.01,1.2-.04,1.91.43,1.9,1.73-.02,1.52-1.17.72-1.83.91"/>
    <path class="cls-2" d="m58.34,74.19c-.2.2-.4.4-.6.59-8.54,8.36-21.65,9.18-31.12,1.92-.97-.75-1.86-1.61-2.75-2.45-.76-.72-1.57-1.2-2.48-.35-.98.91-.55,1.81.2,2.63.15.16.31.32.47.48,5.33,5.09,11.66,7.76,19.81,7.83,1.33.06,3.39-.25,5.4-.72,5.19-1.23,9.64-3.79,13.34-7.64.77-.8.99-1.7.21-2.52-.83-.89-1.72-.52-2.48.24"/>
    <path class="cls-2" d="m27.08,69.23c-.93.98-.41,1.81.41,2.59,3.81,3.62,8.32,5.55,13.08,5.63,5.83-.02,10.29-2.07,14.15-5.6.85-.78,1.22-1.7.37-2.64-.92-1.01-1.81-.44-2.61.3-.2.19-.4.4-.61.58-3.31,2.87-7.17,4.37-11.54,4.16-4.11-.19-7.67-1.89-10.66-4.73-.82-.78-1.65-1.29-2.59-.31"/>
    <path class="cls-2" d="m41.37,70.42c2.4.06,4.84-1.04,6.99-2.88.8-.68,1.28-1.53.53-2.47-.81-1.01-1.66-.69-2.6.04-3.81,2.97-6.73,2.96-10.6-.04-.89-.68-1.69-.97-2.48-.08-.8.9-.42,1.77.39,2.48,2.08,1.83,4.46,2.93,7.78,2.95"/>
  </g>
</svg>