<?xml version="1.0" encoding="UTF-8"?>
<svg id="Layer_2" data-name="Layer 2" xmlns="http://www.w3.org/2000/svg" viewBox="0 0 95.8 95.8">
  <defs>
    <style>
      .cls-1 {
        fill: none;
        stroke: #003057;
        stroke-miterlimit: 10;
        stroke-width: 3px;
      }
    </style>
  </defs>
  <g id="Layer_1-2" data-name="Layer 1">
    <g>
      <rect class="cls-1" x="31.29" y="23.81" width="33.22" height="10.58"/>
      <rect class="cls-1" x="38.27" y="34.38" width="19.26" height="14.38"/>
      <polyline class="cls-1" points="31.29 29.45 22.61 29.45 17.96 29.45 17.96 13.51"/>
      <line class="cls-1" x1="7.43" y1="13.51" x2="28.48" y2="13.51"/>
      <polyline class="cls-1" points="77.85 13.51 77.85 29.45 73.19 29.45 64.51 29.45"/>
      <line class="cls-1" x1="88.37" y1="13.51" x2="67.33" y2="13.51"/>
      <line class="cls-1" x1="43.42" y1="41.45" x2="52.67" y2="41.45"/>
      <line class="cls-1" x1="57.53" y1="41.45" x2="64.15" y2="41.45"/>
      <line class="cls-1" x1="31.65" y1="41.45" x2="38.27" y2="41.45"/>
      <polygon class="cls-1" points="71.1 94.3 1.5 94.3 1.5 1.5 94.3 1.5 94.3 74.64 71.1 94.3"/>
      <polyline class="cls-1" points="1.5 72.69 12.12 72.69 12.12 83.26 1.58 83.26 1.5 83.26"/>
      <rect class="cls-1" x="33.2" y="72.69" width="21.08" height="10.58"/>
      <rect class="cls-1" x="54.27" y="72.69" width="21.08" height="10.58"/>
      <rect class="cls-1" x="1.58" y="62.11" width="21.08" height="10.58"/>
      <rect class="cls-1" x="22.66" y="62.11" width="21.08" height="10.58"/>
      <rect class="cls-1" x="1.58" y="83.26" width="21.08" height="10.58"/>
      <rect class="cls-1" x="22.66" y="83.26" width="21.08" height="10.58"/>
      <rect class="cls-1" x="43.73" y="83.26" width="21.08" height="10.58"/>
    </g>
  </g>
</svg>