<?xml version="1.0" encoding="UTF-8"?>
<svg id="Layer_2" data-name="Layer 2" xmlns="http://www.w3.org/2000/svg" viewBox="0 0 95.02 95.01">
  <defs>
    <style>
      .cls-1 {
        fill: none;
        stroke: #003057;
        stroke-miterlimit: 10;
        stroke-width: 3px;
      }
    </style>
  </defs>
  <g id="Layer_1-2" data-name="Layer 1">
    <path class="cls-1" d="m93.51,70.94c-15.34,0-15.34-7.34-30.67-7.34s-15.34,7.34-30.67,7.34-15.34-7.34-30.67-7.34"/>
    <line class="cls-1" x1="85.72" y1="80.61" x2=".71" y2="80.61"/>
    <polygon class="cls-1" points="70.51 93.51 1.5 93.51 1.5 1.5 93.52 1.5 93.52 74.01 70.51 93.51"/>
    <rect class="cls-1" x="31.66" y="27.05" width="32.94" height="10.48"/>
    <rect class="cls-1" x="38.58" y="37.53" width="19.1" height="14.26"/>
    <polyline class="cls-1" points="31.66 32.63 23.05 32.63 18.43 32.63 18.43 16.84"/>
    <line class="cls-1" x1="8" y1="16.84" x2="28.86" y2="16.84"/>
    <polyline class="cls-1" points="77.82 16.84 77.82 32.63 73.2 32.63 64.59 32.63"/>
    <line class="cls-1" x1="88.25" y1="16.84" x2="67.38" y2="16.84"/>
    <line class="cls-1" x1="43.68" y1="44.54" x2="52.85" y2="44.54"/>
    <line class="cls-1" x1="57.67" y1="44.54" x2="64.24" y2="44.54"/>
    <line class="cls-1" x1="32.01" y1="44.54" x2="38.58" y2="44.54"/>
  </g>
</svg>