<?xml version="1.0" encoding="UTF-8"?>
<svg id="Layer_2" data-name="Layer 2" xmlns="http://www.w3.org/2000/svg" viewBox="0 0 95.8 95.01">
  <defs>
    <style>
      .cls-1 {
        fill: none;
        stroke: #003057;
        stroke-miterlimit: 10;
        stroke-width: 3px;
      }
    </style>
  </defs>
  <g id="Layer_1-2" data-name="Layer 1">
    <polygon class="cls-1" points="71.1 93.51 1.5 93.51 1.5 1.5 94.3 1.5 94.3 74.01 71.1 93.51"/>
    <rect class="cls-1" x="31.55" y="29.13" width="33.22" height="10.48"/>
    <polyline class="cls-1" points="31.55 34.72 22.87 34.72 18.21 34.72 18.21 18.46"/>
    <line class="cls-1" x1="7.69" y1="18.46" x2="28.73" y2="18.46"/>
    <polyline class="cls-1" points="78.1 18.46 78.1 34.72 73.45 34.72 64.77 34.72"/>
    <line class="cls-1" x1="88.63" y1="18.46" x2="67.58" y2="18.46"/>
    <line class="cls-1" x1="38.53" y1="53.87" x2="2.01" y2="74.01"/>
    <line class="cls-1" x1="43.95" y1="53.93" x2="16.48" y2="93.51"/>
    <line class="cls-1" x1="57.79" y1="53.87" x2="94.31" y2="74.01"/>
    <line class="cls-1" x1="52.37" y1="53.93" x2="76.34" y2="89.11"/>
    <line class="cls-1" x1="57.79" y1="46.74" x2="64.41" y2="46.74"/>
    <line class="cls-1" x1="31.91" y1="46.74" x2="38.53" y2="46.74"/>
    <rect class="cls-1" x="38.53" y="39.61" width="19.26" height="14.26"/>
    <line class="cls-1" x1="43.67" y1="46.74" x2="52.93" y2="46.74"/>
  </g>
</svg>