<?xml version="1.0" encoding="UTF-8"?>
<svg id="Layer_2" data-name="Layer 2" xmlns="http://www.w3.org/2000/svg" viewBox="0 0 95.8 95.01">
  <defs>
    <style>
      .cls-1 {
        fill: none;
        stroke: #003057;
        stroke-miterlimit: 10;
        stroke-width: 3px;
      }

      .cls-2 {
        fill: #003057;
      }
    </style>
  </defs>
  <g id="Layer_1-2" data-name="Layer 1">
    <polygon class="cls-1" points="71.1 93.51 1.5 93.51 1.5 1.5 94.3 1.5 94.3 74.01 71.1 93.51"/>
    <rect class="cls-1" x="30.1" y="23.4" width="33.22" height="10.48"/>
    <polyline class="cls-1" points="30.1 28.99 21.42 28.99 16.76 28.99 16.76 12.73"/>
    <line class="cls-1" x1="6.24" y1="12.73" x2="27.28" y2="12.73"/>
    <polyline class="cls-1" points="76.65 12.73 76.65 28.99 72 28.99 63.32 28.99"/>
    <line class="cls-1" x1="87.18" y1="12.73" x2="66.13" y2="12.73"/>
    <line class="cls-1" x1="56.34" y1="41.02" x2="62.96" y2="41.02"/>
    <line class="cls-1" x1="30.46" y1="41.02" x2="37.08" y2="41.02"/>
    <rect class="cls-1" x="37.08" y="33.89" width="19.26" height="14.26"/>
    <line class="cls-1" x1="42.22" y1="41.02" x2="51.48" y2="41.02"/>
    <path class="cls-2" d="m46.03,58.63c6.66,0,11.18.09,15.7-.03,4.22-.11,8.02,1.1,11.6,3.19.9.53,1.72,1.17,2.32,2.03,1.14,1.64,1.2,3.45.76,5.32-.51,2.18-1.63,4.04-2.92,5.82-1.64,2.28-3.61,4.28-5.83,5.95-2.68,2.01-5.58,3.72-8.72,4.96-.03.01-.06.02-.09.04-1.81.88-3.78,1.04-5.73,1.31-.85.12-1.65-.06-2.42-.26-2.61-.67-5.14-.34-7.67.4-.89.26-1.82.39-2.74.56-2.59.47-4.79-.33-6.7-2.05-1.55-1.4-3.03-2.87-4.64-4.2-1.34-1.11-2.84-2.03-4.23-3.09-2.86-2.17-4.95-4.93-6.19-8.29-1.72-4.66.42-8.92,5.16-10.42,1.55-.49,3.16-.63,4.77-.69,6.57-.22,13.14-.41,17.57-.54m-9.66,27.06s.09-.1.14-.14c-.91-1.82-1.52-3.72-1.53-5.82h-1.42v-1.82c.45,0,.87-.02,1.29,0,.31.02.41-.12.53-.39.38-.88.72-1.8,1.25-2.6,1.56-2.38,3.89-3.61,6.63-4.15,1.02-.2,2.06-.32,3.11-.48.01-.21.02-.41.04-.63h1.79c.03.17.05.32.07.47,1.4-.11,2.76-.25,4.13-.33,2.18-.13,4.3.12,6.31,1.06,1.27.6,2.44,1.36,3.27,2.53,1.34,1.89,1.29,3.95.57,6.03-.38,1.11-.86,2.18-1.3,3.28.05,0,.08,0,.11,0,2.31-1.2,4.47-2.64,6.45-4.33.11-.1.2-.28.21-.43.19-2.33-.37-4.44-1.81-6.3-1.42-1.84-3.41-2.68-5.61-3.1-2.83-.54-5.71-.64-8.57-.68-2.63-.04-5.27.07-7.89.29-2.19.19-4.35.65-6.53.97-.3.05-.4.17-.39.46.02.32,0,.63,0,.95h-1.82c-.02-.27-.03-.5-.04-.74-3.54,1.15-5.3,3.64-4.36,7.23.4,1.52.91,3.01,1.03,4.6.01.13.12.28.23.38.69.7,1.37,1.42,2.11,2.08.64.57,1.33,1.08,2.01,1.62m-12.03-24.2c-.74.38-1.46.66-2.07,1.09-1.89,1.32-2.72,3.14-2.41,5.45.25,1.91,1.14,3.54,2.22,5.08.69.98,1.48,1.89,2.22,2.83.05-.03.1-.06.14-.09-.54-1.71-.78-3.44-.38-5.23-.2-.02-.38-.05-.58-.07v-1.87c.91.31,1.36-.14,1.87-.82,1.86-2.49,4.49-3.82,7.42-4.6,2.98-.8,6.04-.87,9.1-.81,5.85.11,11.71.24,17.56.4,3.03.08,6.03.45,8.93,1.34,2.45.75,4.95,1.46,6.33,4,.46-1.62-.09-3.32-1.5-4.24-1.06-.7-2.2-1.28-3.35-1.81-1.01-.47-2.08-.79-3.13-1.17-.02,0-.06,0-.1.02-.02.13-.03.26-.05.42h-1.78c-.02-.3-.04-.53-.07-.88-12.84-.08-25.65-.1-38.47.64-.02.43-.03.78-.05,1.12h-1.79c-.02-.24-.03-.44-.05-.78m5.6,18.49c-1.06-2.83-1.65-5.63-.02-8.47-.35-.02-.64-.04-.94-.05v-1.79h1.79c.01.22.03.42.04.64.08-.04.13-.05.17-.08,1.17-1.11,2.55-1.85,4.08-2.31,4.2-1.28,8.54-1.74,12.9-1.91,3.55-.14,7.1.06,10.64.38,2.06.18,4.08.54,5.9,1.56.93.52,1.82.93,2.9.8.02,0,.05.04.11.08,0,.16.02.35,0,.53-.05.6.1,1.09.48,1.58.77,1,1.28,2.16,1.57,3.39.15.64.26,1.3.4,2,1.37-1.45,2.54-2.98,3.49-4.68.08-.14.1-.32.1-.48-.04-2.11-1.11-3.47-3.02-4.29-3.02-1.29-6.19-1.9-9.43-2.11-2.73-.18-5.46-.24-8.2-.3-3.55-.09-7.1-.12-10.65-.19-2.43-.05-4.86,0-7.27.38-.45.07-.94.1-1.32.32-.18.11-.12.61-.17.99-.39,0-.8-.01-1.2,0-.33.01-.64.04-.64-.45-1.58.61-2.96,1.42-4.12,2.56-1.46,1.43-2.01,3.16-1.76,5.19.18,1.51.82,2.85,1.42,4.22.56,1.27,1.76,1.71,2.76,2.48m27.47-7.65c-1.6-.6-3.23-.78-4.88-.66-1.78.13-3.55.27-5.32.47-1.43.16-2.86.36-4.27.63-1.09.21-1.08.27-1.14,1.35,0,.03-.03.06-.06.12-.55,0-1.13,0-1.7,0-.11,0-.24,0-.31.05-1.9,1.58-2.95,3.56-2.85,6.07.07,1.68.71,3.2,1.46,4.67q.62,1.22,1.96,1.05s.06-.02.12-.05c-.59-2.48-.01-4.82.82-7.14-.37-.12-.49-1.05-.25-1.89.32,0,.64-.02.96,0,.42.04.73-.1,1.03-.4.86-.87,1.93-1.42,3.08-1.84,2.4-.87,4.89-.91,7.39-.79.78.04,1.53.36,1.97,1.03.48.74.92,1.42,1.97,1.03v1.88c-.17,0-.3,0-.44,0-.15,0-.29.02-.46.03.38,2.36.49,4.66-.56,7.04.91-.32,1.67-.58,2.42-.85.06-.02.11-.08.14-.14.54-1.08,1.08-2.16,1.64-3.29-.35-.02-.6-.04-.84-.05v-1.81c.43,0,.84.02,1.24-.01.14-.01.35-.17.37-.28.13-.73.32-1.47.28-2.2-.06-1.3-.79-2.25-1.89-3-.02.33-.03.6-.05.86h-1.8v-1.87Zm-5.67,12.91c1.9.27,1.81.26,2.64-1.4.08-.17.14-.35.19-.52.65-2.24.29-4.44-.25-6.63-.14-.55-.58-.87-1.17-.89-1.67-.05-3.33-.06-4.97.3-1.83.39-3.5,1.08-4.67,2.65-.88,1.19-1.19,2.58-1.37,4-.1.81-.03,1.65,0,2.48,0,.32.19.48.55.37.45-.14.91-.24,1.39-.37-.39-1.46-.17-2.79.73-3.97.75-.99,1.76-1.64,2.91-2.07.47-.18.96-.31,1.43-.46.02-.27.03-.52.05-.76h1.81c0,.26-.02.5,0,.73.02.13.1.29.2.36,1.67,1.19,2.17,3.14,1.26,4.98-.21.42-.47.82-.71,1.23m-5.82-.39c1.09,0,2.12,0,3.15,0,.2,0,.48.05.57-.06.64-.72,1.3-1.45,1.41-2.47.11-1.08-.6-1.89-1.57-1.74-1.2.18-2.28.65-3.09,1.59-.67.77-.86,1.66-.47,2.67"/>
    <path class="cls-2" d="m18.3,56.18c-.09-.61-.17-1.18-.27-1.87,1.35-.08,2.68-.28,3.98-.19,2.28.15,4.55.47,6.83.73,2.47.28,4.94.35,7.42.26,3.65-.14,7.3-.19,10.95-.37,2.81-.14,5.62-.4,8.43-.65,1.06-.1,2.07.11,3.05.42,1.98.63,3.99.5,6.01.41,3.83-.17,7.65-.65,11.5-.49.15,0,.3.02.47.04v1.78c-.17.01-.32.03-.46.03-3.28-.12-6.55.2-9.82.4-1.91.12-3.84.18-5.75.1-1-.04-1.99-.37-2.97-.65-1.26-.37-2.49-.1-3.74,0-1.37.11-2.74.3-4.11.35-5.23.2-10.46.38-15.68.51-2.67.07-5.31-.28-7.96-.64-2.51-.34-5.03-.61-7.55-.16-.08.01-.17,0-.31,0"/>
    <rect class="cls-2" x="18.88" y="57.74" width="1.79" height="1.76"/>
    <rect class="cls-2" x="73.05" y="57.74" width="1.75" height="1.79"/>
    <rect class="cls-2" x="17.99" y="77.03" width="1.77" height="1.78"/>
    <rect class="cls-2" x="73.96" y="77.02" width="1.76" height="1.78"/>
    <rect class="cls-2" x="21.66" y="79.79" width="1.76" height="1.79"/>
    <rect class="cls-2" x="72.13" y="80.7" width="1.77" height="1.78"/>
    <rect class="cls-2" x="68.46" y="83.44" width="1.77" height="1.79"/>
    <rect class="cls-2" x="24.4" y="85.29" width="1.78" height="1.77"/>
    <rect class="cls-2" x="18.9" y="87.12" width="1.77" height="1.78"/>
    <rect class="cls-2" x="65.7" y="87.12" width="1.76" height="1.78"/>
    <rect class="cls-2" x="28.06" y="88.04" width="1.79" height="1.77"/>
    <rect class="cls-2" x="46.43" y="88.03" width="1.77" height="1.77"/>
    <rect class="cls-2" x="58.37" y="88.05" width="1.77" height="1.77"/>
    <rect class="cls-2" x="71.21" y="88.02" width="1.76" height="1.79"/>
    <rect class="cls-2" x="32.66" y="73.34" width="1.77" height="1.79"/>
    <rect class="cls-2" x="64.78" y="76.09" width="1.77" height="1.78"/>
    <rect class="cls-2" x="21.65" y="65.1" width="1.79" height="1.76"/>
    <rect class="cls-2" x="70.29" y="69.67" width="1.78" height="1.77"/>
  </g>
</svg>