<?xml version="1.0" encoding="UTF-8"?>
<svg id="Layer_2" data-name="Layer 2" xmlns="http://www.w3.org/2000/svg" viewBox="0 0 95.8 95.01">
  <defs>
    <style>
      .cls-1 {
        fill: none;
        stroke: #003057;
        stroke-miterlimit: 10;
        stroke-width: 3px;
      }

      .cls-2 {
        fill: #003057;
      }
    </style>
  </defs>
  <g id="Layer_1-2" data-name="Layer 1">
    <polygon class="cls-1" points="71.1 93.51 1.5 93.51 1.5 1.5 94.3 1.5 94.3 74.01 71.1 93.51"/>
    <path class="cls-2" d="m80.85,64.34c-.11-.41-.48-.85-.86-1.08-3.15-1.86-6.33-3.69-9.52-5.49-.55-.31-.77-.64-.77-1.29.03-3.64.02-7.28.02-10.92s-.03-7.16.02-10.73c.01-1-.34-1.57-1.2-2.06-6.26-3.57-12.48-7.2-18.73-10.78-.56-.32-.77-.66-.76-1.3.03-3.21.01-6.42.01-9.62,0-.65.03-1.3-.05-1.94-.11-.94-1.2-1.4-1.85-.76-.3.29-.44.87-.44,1.32-.03,3.64-.04,7.28,0,10.92,0,.67-.18,1.04-.78,1.38-6.25,3.58-12.48,7.2-18.73,10.78-.85.49-1.21,1.05-1.21,2.05.04,7.22.01,14.44.04,21.66,0,.64-.2.98-.76,1.3-3.19,1.8-6.36,3.64-9.53,5.48-.31.18-.74.45-.78.72-.06.46,0,1.21.28,1.37.4.24,1.16.26,1.58.03,3.26-1.8,6.48-3.68,9.69-5.57.53-.31.89-.29,1.41,0,6.17,3.59,12.38,7.13,18.54,10.74,1,.59,1.79.6,2.8.01,5.55-3.26,11.2-6.35,16.67-9.74,1.95-1.21,3.36-1.23,5.23.04,2.46,1.68,5.13,3.06,7.74,4.49.41.22,1.07.2,1.52.04.26-.09.52-.75.43-1.07m-34.16,2.7c0,.21-.03.41-.06.8-5.7-3.29-11.28-6.51-17-9.81l-1.17-2.14v-19.58c1.79,1.03,3.49,2.01,5.19,2.99,4.1,2.37,8.2,4.75,12.32,7.1.47.27.74.52.74,1.12-.02,6.51-.01,13.01-.02,19.52m.73-22.62c-5.8-3.31-11.58-6.66-17.36-10.01-.1-.06-.19-.13-.39-.26,5.68-3.28,11.26-6.5,17.02-9.83.79,0,1.57.01,2.36.02,5.75,3.32,11.32,6.54,17.03,9.83-2.04,1.18-3.94,2.3-5.85,3.4-3.92,2.26-7.83,4.53-11.77,6.76-.28.16-.79.24-1.05.09m19.81,11.43c-.38.72-.76,1.44-1.14,2.17-5.68,3.28-11.26,6.5-17.02,9.83v-1.93c0-6.05.02-12.09-.02-18.14,0-.77.26-1.14.89-1.5,5.53-3.16,11.05-6.36,16.57-9.54.21-.12.42-.23.72-.39v19.5Z"/>
    <path class="cls-2" d="m43.78,79.45c1.16-.7,1.8-1.84,1.8-3.16,0-2.26-1.65-3.96-4.35-3.96-1.76,0-3.2.86-3.94,2.02l1.61,1.51c.71-.78,1.31-1.12,2.1-1.12,1.08,0,1.88.84,1.88,1.82,0,1.12-.69,2.04-2.55,2.04h-.84v1.77h.84c1.98,0,2.78.88,2.78,2.14,0,1.1-.9,2-2.1,2-.92,0-1.63-.41-2.33-1.29l-1.71,1.37c.77,1.35,2.29,2.35,4.26,2.35,2.82,0,4.57-1.74,4.57-4.12,0-1.47-.73-2.67-2.02-3.37"/>
    <path class="cls-2" d="m51.97,72.63h-3.92v14.02h3.92c4.55,0,6.86-3.02,6.86-7.02s-2.31-7-6.86-7m0,11.41h-1.08v-8.8h1.08c2.78,0,4.02,1.8,4.02,4.39s-1.24,4.41-4.02,4.41"/>
  </g>
</svg>