<?xml version="1.0" encoding="UTF-8"?>
<svg id="Layer_2" data-name="Layer 2" xmlns="http://www.w3.org/2000/svg" viewBox="0 0 95.8 95.01">
  <defs>
    <style>
      .cls-1 {
        stroke-width: 3px;
      }

      .cls-1, .cls-2, .cls-3, .cls-4, .cls-5 {
        fill: none;
        stroke: #003057;
        stroke-miterlimit: 10;
      }

      .cls-2, .cls-3, .cls-4 {
        stroke-linecap: round;
      }

      .cls-3, .cls-5 {
        stroke-width: 2px;
      }

      .cls-4 {
        stroke-width: 4px;
      }
    </style>
  </defs>
  <g id="Layer_1-2" data-name="Layer 1">
    <polygon class="cls-1" points="71.1 93.51 1.5 93.51 1.5 1.5 94.3 1.5 94.3 74.01 71.1 93.51"/>
    <rect class="cls-1" x="30.1" y="23.4" width="33.22" height="10.49"/>
    <polyline class="cls-1" points="30.1 28.99 21.42 28.99 16.76 28.99 16.76 12.73"/>
    <line class="cls-1" x1="6.24" y1="12.73" x2="27.28" y2="12.73"/>
    <polyline class="cls-1" points="76.65 12.73 76.65 28.99 72 28.99 63.32 28.99"/>
    <line class="cls-1" x1="87.18" y1="12.73" x2="66.13" y2="12.73"/>
    <line class="cls-1" x1="56.34" y1="41.02" x2="62.96" y2="41.02"/>
    <line class="cls-1" x1="30.46" y1="41.02" x2="37.08" y2="41.02"/>
    <rect class="cls-1" x="37.08" y="33.89" width="19.26" height="14.26"/>
    <line class="cls-1" x1="42.22" y1="41.02" x2="51.48" y2="41.02"/>
    <circle class="cls-5" cx="32.71" cy="65.58" r="12.96" transform="translate(-37.26 87.36) rotate(-80.78)"/>
    <line class="cls-4" x1="46.24" y1="68.81" x2="76.65" y2="78.54"/>
    <path class="cls-3" d="m29.14,56.49c.57-.22,4.27-1.58,8.1.41,3.3,1.71,4.47,4.74,4.72,5.44"/>
    <path class="cls-2" d="m37.13,61.89c.36.2,2.68,1.49,3.34,4.33.57,2.44-.47,4.36-.72,4.8"/>
  </g>
</svg>